{"glyphs":{"0":{"ha":1389,"x_min":0,"x_max":1215,"o":"m 174 694 l 174 174 l 1042 174 l 1042 694 l 174 694 m 174 868 l 1042 868 q 1215 694 1215 868 l 1215 174 q 1042 0 1215 0 l 174 0 q 0 174 0 0 l 0 694 q 174 868 0 868 z "},"1":{"ha":347,"x_min":0,"x_max":174,"o":"m 174 868 l 174 0 l 0 0 l 0 868 l 174 868 z "},"2":{"ha":1389,"x_min":0,"x_max":1215,"o":"m 0 868 l 1042 868 q 1215 694 1215 868 l 1215 521 q 1042 347 1215 347 l 174 347 l 174 174 l 1215 174 l 1215 0 l 0 0 l 0 347 q 174 521 0 521 l 1042 521 l 1042 694 l 0 694 l 0 868 z "},"3":{"ha":1389,"x_min":0,"x_max":1215,"o":"m 0 694 l 0 868 l 1042 868 q 1215 694 1215 868 l 1215 174 q 1042 0 1215 0 l 0 0 l 0 174 l 1042 174 l 1042 694 l 0 694 m 0 347 l 0 521 l 868 521 l 868 347 l 0 347 z "},"4":{"ha":1389,"x_min":0,"x_max":1215,"o":"m 174 868 l 174 521 l 1042 521 l 1042 868 l 1215 868 l 1215 0 l 1042 0 l 1042 347 l 174 347 q 0 521 0 347 l 0 868 l 174 868 z "},"5":{"ha":1389,"x_min":0,"x_max":1215,"o":"m 1215 694 l 174 694 l 174 521 l 1042 521 q 1215 347 1215 521 l 1215 174 q 1042 0 1215 0 l 0 0 l 0 174 l 1042 174 l 1042 347 l 0 347 l 0 868 l 1215 868 l 1215 694 z "},"6":{"ha":1389,"x_min":0,"x_max":1215,"o":"m 347 347 l 347 521 l 1042 521 q 1215 347 1215 521 l 1215 174 q 1042 0 1215 0 l 174 0 q 0 174 0 0 l 0 694 q 174 868 0 868 l 1215 868 l 1215 694 l 174 694 l 174 174 l 1042 174 l 1042 347 l 347 347 z "},"7":{"ha":1389,"x_min":0,"x_max":1215,"o":"m 0 868 l 1215 868 l 781 0 l 572 0 l 928 694 l 0 694 l 0 868 z "},"8":{"ha":1389,"x_min":0,"x_max":1215,"o":"m 174 868 l 1042 868 q 1215 694 1215 868 l 1215 174 q 1042 0 1215 0 l 174 0 q 0 174 0 0 l 0 694 q 174 868 0 868 m 174 694 l 174 521 l 1042 521 l 1042 694 l 174 694 m 174 347 l 174 174 l 1042 174 l 1042 347 l 174 347 z "},"9":{"ha":1389,"x_min":0,"x_max":1215,"o":"m 868 521 l 868 347 l 174 347 q 0 521 0 347 l 0 694 q 174 868 0 868 l 1042 868 q 1215 694 1215 868 l 1215 174 q 1042 0 1215 0 l 0 0 l 0 174 l 1042 174 l 1042 694 l 174 694 l 174 521 l 868 521 z "}," ":{"ha":694,"x_min":0,"x_max":0,"o":""},"!":{"ha":347,"x_min":0,"x_max":174,"o":"m 174 868 l 174 347 l 0 347 l 0 868 l 174 868 m 174 174 l 174 0 l 0 0 l 0 174 l 174 174 z "},"\"":{"ha":694,"x_min":0,"x_max":521,"o":"m 0 521 l 0 868 l 174 868 l 174 521 l 0 521 m 347 521 l 347 868 l 521 868 l 521 521 l 347 521 z "},"#":{"ha":1389,"x_min":0,"x_max":1326,"o":"m 297 347 l 335 521 l 75 521 l 111 694 l 372 694 l 408 868 l 582 868 l 545 694 l 892 694 l 929 868 l 1103 868 l 1066 694 l 1326 694 l 1290 521 l 1029 521 l 991 347 l 1252 347 l 1215 174 l 955 174 l 918 0 l 745 0 l 781 174 l 434 174 l 397 0 l 224 0 l 260 174 l 0 174 l 37 347 l 297 347 m 509 521 l 471 347 l 818 347 l 856 521 l 509 521 z "},"$":{"ha":1389,"x_min":0,"x_max":1215,"o":"m 521 868 l 521 955 l 694 955 l 694 868 l 1215 868 l 1215 694 l 174 694 l 174 521 l 1042 521 q 1215 347 1215 521 l 1215 174 q 1042 0 1215 0 l 694 0 l 694 -87 l 521 -87 l 521 0 l 0 0 l 0 174 l 1042 174 l 1042 347 l 174 347 q 0 521 0 347 l 0 694 q 174 868 0 868 l 521 868 z "},"%":{"ha":1082,"x_min":0,"x_max":909,"o":"m 0 0 l 700 868 l 909 868 l 214 0 l 0 0 m 41 694 l 41 868 l 214 868 l 214 694 l 41 694 m 735 0 l 735 174 l 909 174 l 909 0 l 735 0 z "},"&":{"ha":1563,"x_min":0,"x_max":1389,"o":"m 174 694 l 174 521 l 1042 521 l 1042 694 l 174 694 m 174 347 l 174 174 l 1042 174 l 1042 347 l 174 347 m 1215 347 l 1215 174 q 1042 0 1215 0 l 174 0 q 0 174 0 0 l 0 694 q 174 868 0 868 l 1042 868 q 1215 694 1215 868 l 1215 521 l 1389 521 l 1389 347 l 1215 347 z "},"'":{"ha":347,"x_min":0,"x_max":174,"o":"m 0 521 l 0 868 l 174 868 l 174 521 l 0 521 z "},"(":{"ha":1042,"x_min":0,"x_max":868,"o":"m 868 868 l 174 868 l 174 0 l 868 0 l 868 -174 l 174 -174 q 0 0 0 -174 l 0 868 q 174 1042 0 1042 l 868 1042 l 868 868 z "},")":{"ha":1042,"x_min":0,"x_max":868,"o":"m 0 1042 l 694 1042 q 868 868 868 1042 l 868 0 q 694 -174 868 -174 l 0 -174 l 0 0 l 694 0 l 694 868 l 0 868 l 0 1042 z "},"*":{"ha":654,"x_min":0,"x_max":480,"o":"m 283 526 l 283 347 l 197 347 l 197 526 l 49 426 l 0 498 l 163 608 l 0 718 l 49 789 l 197 689 l 197 868 l 283 868 l 283 689 l 431 789 l 480 718 l 317 608 l 480 498 l 431 426 l 283 526 z "},"+":{"ha":1042,"x_min":0,"x_max":868,"o":"m 347 521 l 347 868 l 521 868 l 521 521 l 868 521 l 868 347 l 521 347 l 521 0 l 347 0 l 347 347 l 0 347 l 0 521 l 347 521 z "},",":{"ha":347,"x_min":0,"x_max":174,"o":"m 174 347 l 174 0 l 0 0 l 0 347 l 174 347 z "},"-":{"ha":694,"x_min":0,"x_max":521,"o":"m 0 347 l 0 521 l 521 521 l 521 347 l 0 347 z "},".":{"ha":347,"x_min":0,"x_max":174,"o":"m 0 0 l 0 174 l 174 174 l 174 0 l 0 0 z "},"/":{"ha":1082,"x_min":0,"x_max":909,"o":"m 0 0 l 700 868 l 909 868 l 214 0 l 0 0 z "},":":{"ha":347,"x_min":0,"x_max":174,"o":"m 174 694 l 174 521 l 0 521 l 0 694 l 174 694 m 174 347 l 174 174 l 0 174 l 0 347 l 174 347 z "},";":{"ha":347,"x_min":0,"x_max":174,"o":"m 174 694 l 174 521 l 0 521 l 0 694 l 174 694 m 174 347 l 174 0 l 0 0 l 0 347 l 174 347 z "},"<":{"ha":1042,"x_min":0,"x_max":868,"o":"m 868 868 l 868 694 l 174 437 l 868 174 l 868 0 l 0 347 l 0 521 l 868 868 z "},"=":{"ha":1042,"x_min":0,"x_max":868,"o":"m 0 521 l 0 694 l 868 694 l 868 521 l 0 521 m 0 174 l 0 347 l 868 347 l 868 174 l 0 174 z "},">":{"ha":1042,"x_min":0,"x_max":868,"o":"m 868 521 l 868 347 l 0 0 l 0 174 l 694 437 l 0 694 l 0 868 l 868 521 z "},"?":{"ha":1389,"x_min":0,"x_max":1215,"o":"m 694 174 l 694 0 l 521 0 l 521 174 l 694 174 m 0 694 q 174 868 0 868 l 1042 868 q 1215 694 1215 868 l 1215 521 q 1042 347 1215 347 l 521 347 l 521 521 l 1042 521 l 1042 694 l 174 694 l 174 521 l 0 521 l 0 694 z "},"@":{"ha":1389,"x_min":0,"x_max":1215,"o":"m 1215 521 q 1042 347 1215 347 l 347 347 l 347 521 l 1042 521 l 1042 694 l 174 694 l 174 174 l 1215 174 l 1215 0 l 174 0 q 0 174 0 0 l 0 694 q 174 868 0 868 l 1042 868 q 1215 694 1215 868 l 1215 521 z "},"A":{"ha":1389,"x_min":0,"x_max":1215,"o":"m 174 0 l 0 0 l 0 694 q 174 868 0 868 l 1042 868 q 1215 694 1215 868 l 1215 0 l 1042 0 l 1042 347 l 347 347 l 347 521 l 1042 521 l 1042 694 l 174 694 l 174 0 z "},"B":{"ha":1389,"x_min":0,"x_max":1215,"o":"m 347 521 l 1042 521 l 1042 694 l 174 694 l 174 174 l 1042 174 l 1042 347 l 347 347 l 347 521 m 0 868 l 1042 868 q 1215 694 1215 868 l 1215 608 q 1128 434 1215 449 q 1215 260 1215 419 l 1215 174 q 1042 0 1215 0 l 0 0 l 0 868 z "},"C":{"ha":1389,"x_min":0,"x_max":1215,"o":"m 0 174 l 0 694 q 174 868 0 868 l 1215 868 l 1215 694 l 174 694 l 174 174 l 1215 174 l 1215 0 l 174 0 q 0 174 0 0 z "},"D":{"ha":1389,"x_min":0,"x_max":1215,"o":"m 0 694 l 0 868 l 1042 868 q 1215 694 1215 868 l 1215 174 q 1042 0 1215 0 l 0 0 l 0 174 l 1042 174 l 1042 694 l 0 694 z "},"E":{"ha":1389,"x_min":0,"x_max":1215,"o":"m 1215 694 l 174 694 l 174 174 l 1215 174 l 1215 0 l 174 0 q 0 174 0 0 l 0 694 q 174 868 0 868 l 1215 868 l 1215 694 m 1215 347 l 347 347 l 347 521 l 1215 521 l 1215 347 z "},"F":{"ha":1389,"x_min":0,"x_max":1215,"o":"m 1215 694 l 174 694 l 174 0 l 0 0 l 0 694 q 174 868 0 868 l 1215 868 l 1215 694 m 1215 347 l 347 347 l 347 521 l 1215 521 l 1215 347 z "},"G":{"ha":1389,"x_min":0,"x_max":1215,"o":"m 1215 0 l 174 0 q 0 174 0 0 l 0 694 q 174 868 0 868 l 1215 868 l 1215 694 l 174 694 l 174 174 l 1042 174 l 1042 347 l 347 347 l 347 521 l 1215 521 l 1215 0 z "},"H":{"ha":1389,"x_min":0,"x_max":1215,"o":"m 174 868 l 174 521 l 1042 521 l 1042 868 l 1215 868 l 1215 0 l 1042 0 l 1042 347 l 174 347 l 174 0 l 0 0 l 0 868 l 174 868 z "},"I":{"ha":347,"x_min":0,"x_max":174,"o":"m 174 868 l 174 0 l 0 0 l 0 868 l 174 868 z "},"J":{"ha":1389,"x_min":0,"x_max":1215,"o":"m 1215 868 l 1215 174 q 1042 0 1215 0 l 174 0 q 0 174 0 0 l 0 347 l 174 347 l 174 174 l 1042 174 l 1042 868 l 1215 868 z "},"K":{"ha":1389,"x_min":0,"x_max":1215,"o":"m 174 868 l 174 0 l 0 0 l 0 868 l 174 868 m 347 434 l 933 868 l 1215 868 l 629 434 l 1215 0 l 933 0 l 347 434 z "},"L":{"ha":1389,"x_min":0,"x_max":1215,"o":"m 1215 0 l 0 0 l 0 868 l 174 868 l 174 174 l 1215 174 l 1215 0 z "},"M":{"ha":1736,"x_min":0,"x_max":1563,"o":"m 955 868 l 1389 868 q 1563 694 1563 868 l 1563 0 l 1389 0 l 1389 694 l 868 694 l 868 0 l 694 0 l 694 694 l 174 694 l 174 0 l 0 0 l 0 694 q 174 868 0 868 l 608 868 q 781 781 779 868 q 955 868 784 868 z "},"N":{"ha":1389,"x_min":0,"x_max":1215,"o":"m 0 0 l 0 868 l 1042 302 l 1042 868 l 1215 868 l 1215 0 l 174 555 l 174 0 l 0 0 z "},"O":{"ha":1389,"x_min":0,"x_max":1215,"o":"m 174 694 l 174 174 l 1042 174 l 1042 694 l 174 694 m 174 868 l 1042 868 q 1215 694 1215 868 l 1215 174 q 1042 0 1215 0 l 174 0 q 0 174 0 0 l 0 694 q 174 868 0 868 z "},"P":{"ha":1389,"x_min":0,"x_max":1215,"o":"m 174 0 l 0 0 l 0 868 l 1042 868 q 1215 694 1215 868 l 1215 521 q 1042 347 1215 347 l 347 347 l 347 521 l 1042 521 l 1042 694 l 174 694 l 174 0 z "},"Q":{"ha":1389,"x_min":0,"x_max":1215,"o":"m 822 0 l 174 0 q 0 174 0 0 l 0 694 q 174 868 0 868 l 1042 868 q 1215 694 1215 868 l 1215 174 q 1042 0 1215 0 l 1215 -174 l 996 -174 l 822 0 m 1042 174 l 1042 694 l 174 694 l 174 174 l 1042 174 z "},"R":{"ha":1389,"x_min":0,"x_max":1215,"o":"m 174 0 l 0 0 l 0 868 l 1042 868 q 1215 694 1215 868 l 1215 521 q 1044 347 1215 347 l 868 347 l 1215 0 l 998 0 l 651 347 l 347 347 l 347 521 l 1042 521 l 1042 694 l 174 694 l 174 0 z "},"S":{"ha":1389,"x_min":0,"x_max":1232,"o":"m 1215 694 l 174 694 l 174 521 l 1042 521 q 1215 347 1215 521 l 1215 174 q 1042 0 1215 0 l 0 0 l 0 174 l 1042 174 l 1042 347 l 174 347 q 0 521 0 347 l 0 694 q 174 868 0 868 l 1232 868 l 1215 694 z "},"T":{"ha":1389,"x_min":0,"x_max":1215,"o":"m 0 868 l 1215 868 l 1215 694 l 694 694 l 694 0 l 521 0 l 521 694 l 0 694 l 0 868 z "},"U":{"ha":1389,"x_min":0,"x_max":1215,"o":"m 1042 0 l 174 0 q 0 174 0 0 l 0 868 l 174 868 l 174 174 l 1042 174 l 1042 868 l 1215 868 l 1215 174 q 1042 0 1215 0 z "},"V":{"ha":1389,"x_min":0,"x_max":1215,"o":"m 1215 868 l 694 0 l 521 0 l 0 868 l 198 868 l 608 218 l 1012 868 l 1215 868 z "},"W":{"ha":1736,"x_min":0,"x_max":1563,"o":"m 781 87 q 608 0 779 0 l 174 0 q 0 174 0 0 l 0 868 l 174 868 l 174 174 l 694 174 l 694 868 l 868 868 l 868 174 l 1389 174 l 1389 868 l 1563 868 l 1563 174 q 1389 0 1563 0 l 955 0 q 781 87 784 0 z "},"X":{"ha":1389,"x_min":0,"x_max":1215,"o":"m 477 434 l 0 868 l 260 868 l 608 552 l 955 868 l 1215 868 l 738 434 l 1215 0 l 955 0 l 608 316 l 260 0 l 0 0 l 477 434 z "},"Y":{"ha":1389,"x_min":0,"x_max":1215,"o":"m 521 347 l 174 347 q 0 521 0 347 l 0 868 l 174 868 l 174 521 l 1042 521 l 1042 868 l 1215 868 l 1215 521 q 1042 347 1215 347 l 694 347 l 694 0 l 521 0 l 521 347 z "},"Z":{"ha":1389,"x_min":0,"x_max":1215,"o":"m 1215 0 l 0 0 l 781 694 l 0 694 l 0 868 l 1215 868 l 434 174 l 1215 174 l 1215 0 z "},"[":{"ha":1042,"x_min":0,"x_max":868,"o":"m 868 868 l 174 868 l 174 0 l 868 0 l 868 -174 l 174 -174 q 0 0 0 -174 l 0 868 q 174 1042 0 1042 l 868 1042 l 868 868 z "},"\\":{"ha":1082,"x_min":0,"x_max":909,"o":"m 694 0 l 0 868 l 209 868 l 909 0 l 694 0 z "},"]":{"ha":1042,"x_min":0,"x_max":868,"o":"m 0 1042 l 694 1042 q 868 868 868 1042 l 868 0 q 694 -174 868 -174 l 0 -174 l 0 0 l 694 0 l 694 868 l 0 868 l 0 1042 z "},"^":{"ha":694,"x_min":0,"x_max":521,"o":"m 0 521 l 263 868 l 521 521 l 347 521 l 266 629 l 174 521 l 0 521 z "},"_":{"ha":1042,"x_min":0,"x_max":868,"o":"m 0 -174 l 0 0 l 868 0 l 868 -174 l 0 -174 z "},"`":{"ha":564,"x_min":0,"x_max":391,"o":"m 0 1042 l 217 1042 l 391 911 l 174 911 l 0 1042 z "},"a":{"ha":1389,"x_min":0,"x_max":1215,"o":"m 174 0 l 0 0 l 0 694 q 174 868 0 868 l 1042 868 q 1215 694 1215 868 l 1215 0 l 1042 0 l 1042 347 l 347 347 l 347 521 l 1042 521 l 1042 694 l 174 694 l 174 0 z "},"b":{"ha":1389,"x_min":0,"x_max":1215,"o":"m 347 521 l 1042 521 l 1042 694 l 174 694 l 174 174 l 1042 174 l 1042 347 l 347 347 l 347 521 m 0 868 l 1042 868 q 1215 694 1215 868 l 1215 608 q 1128 434 1215 449 q 1215 260 1215 419 l 1215 174 q 1042 0 1215 0 l 0 0 l 0 868 z "},"c":{"ha":1389,"x_min":0,"x_max":1215,"o":"m 0 174 l 0 694 q 174 868 0 868 l 1215 868 l 1215 694 l 174 694 l 174 174 l 1215 174 l 1215 0 l 174 0 q 0 174 0 0 z "},"d":{"ha":1389,"x_min":0,"x_max":1215,"o":"m 0 694 l 0 868 l 1042 868 q 1215 694 1215 868 l 1215 174 q 1042 0 1215 0 l 0 0 l 0 174 l 1042 174 l 1042 694 l 0 694 z "},"e":{"ha":1389,"x_min":0,"x_max":1215,"o":"m 1215 694 l 174 694 l 174 174 l 1215 174 l 1215 0 l 174 0 q 0 174 0 0 l 0 694 q 174 868 0 868 l 1215 868 l 1215 694 m 1215 347 l 347 347 l 347 521 l 1215 521 l 1215 347 z "},"f":{"ha":1389,"x_min":0,"x_max":1215,"o":"m 1215 694 l 174 694 l 174 0 l 0 0 l 0 694 q 174 868 0 868 l 1215 868 l 1215 694 m 1215 347 l 347 347 l 347 521 l 1215 521 l 1215 347 z "},"g":{"ha":1389,"x_min":0,"x_max":1215,"o":"m 1215 0 l 174 0 q 0 174 0 0 l 0 694 q 174 868 0 868 l 1215 868 l 1215 694 l 174 694 l 174 174 l 1042 174 l 1042 347 l 347 347 l 347 521 l 1215 521 l 1215 0 z "},"h":{"ha":1389,"x_min":0,"x_max":1215,"o":"m 174 868 l 174 521 l 1042 521 l 1042 868 l 1215 868 l 1215 0 l 1042 0 l 1042 347 l 174 347 l 174 0 l 0 0 l 0 868 l 174 868 z "},"i":{"ha":347,"x_min":0,"x_max":174,"o":"m 174 868 l 174 0 l 0 0 l 0 868 l 174 868 z "},"j":{"ha":1389,"x_min":0,"x_max":1215,"o":"m 1215 868 l 1215 174 q 1042 0 1215 0 l 174 0 q 0 174 0 0 l 0 347 l 174 347 l 174 174 l 1042 174 l 1042 868 l 1215 868 z "},"k":{"ha":1389,"x_min":0,"x_max":1215,"o":"m 174 868 l 174 0 l 0 0 l 0 868 l 174 868 m 347 434 l 933 868 l 1215 868 l 629 434 l 1215 0 l 933 0 l 347 434 z "},"l":{"ha":1389,"x_min":0,"x_max":1215,"o":"m 1215 0 l 0 0 l 0 868 l 174 868 l 174 174 l 1215 174 l 1215 0 z "},"m":{"ha":1736,"x_min":0,"x_max":1563,"o":"m 955 868 l 1389 868 q 1563 694 1563 868 l 1563 0 l 1389 0 l 1389 694 l 868 694 l 868 0 l 694 0 l 694 694 l 174 694 l 174 0 l 0 0 l 0 694 q 174 868 0 868 l 608 868 q 781 781 779 868 q 955 868 784 868 z "},"n":{"ha":1389,"x_min":0,"x_max":1215,"o":"m 0 0 l 0 868 l 1042 302 l 1042 868 l 1215 868 l 1215 0 l 174 555 l 174 0 l 0 0 z "},"o":{"ha":1389,"x_min":0,"x_max":1215,"o":"m 174 694 l 174 174 l 1042 174 l 1042 694 l 174 694 m 174 868 l 1042 868 q 1215 694 1215 868 l 1215 174 q 1042 0 1215 0 l 174 0 q 0 174 0 0 l 0 694 q 174 868 0 868 z "},"p":{"ha":1389,"x_min":0,"x_max":1215,"o":"m 174 0 l 0 0 l 0 868 l 1042 868 q 1215 694 1215 868 l 1215 521 q 1042 347 1215 347 l 347 347 l 347 521 l 1042 521 l 1042 694 l 174 694 l 174 0 z "},"q":{"ha":1389,"x_min":0,"x_max":1215,"o":"m 822 0 l 174 0 q 0 174 0 0 l 0 694 q 174 868 0 868 l 1042 868 q 1215 694 1215 868 l 1215 174 q 1042 0 1215 0 l 1215 -174 l 996 -174 l 822 0 m 1042 174 l 1042 694 l 174 694 l 174 174 l 1042 174 z "},"r":{"ha":1389,"x_min":0,"x_max":1215,"o":"m 174 0 l 0 0 l 0 868 l 1042 868 q 1215 694 1215 868 l 1215 521 q 1044 347 1215 347 l 868 347 l 1215 0 l 998 0 l 651 347 l 347 347 l 347 521 l 1042 521 l 1042 694 l 174 694 l 174 0 z "},"s":{"ha":1389,"x_min":0,"x_max":1232,"o":"m 1215 694 l 174 694 l 174 521 l 1042 521 q 1215 347 1215 521 l 1215 174 q 1042 0 1215 0 l 0 0 l 0 174 l 1042 174 l 1042 347 l 174 347 q 0 521 0 347 l 0 694 q 174 868 0 868 l 1232 868 l 1215 694 z "},"t":{"ha":1389,"x_min":0,"x_max":1215,"o":"m 0 868 l 1215 868 l 1215 694 l 694 694 l 694 0 l 521 0 l 521 694 l 0 694 l 0 868 z "},"u":{"ha":1389,"x_min":0,"x_max":1215,"o":"m 1042 0 l 174 0 q 0 174 0 0 l 0 868 l 174 868 l 174 174 l 1042 174 l 1042 868 l 1215 868 l 1215 174 q 1042 0 1215 0 z "},"v":{"ha":1389,"x_min":0,"x_max":1215,"o":"m 1215 868 l 694 0 l 521 0 l 0 868 l 198 868 l 608 218 l 1012 868 l 1215 868 z "},"w":{"ha":1736,"x_min":0,"x_max":1563,"o":"m 781 87 q 608 0 779 0 l 174 0 q 0 174 0 0 l 0 868 l 174 868 l 174 174 l 694 174 l 694 868 l 868 868 l 868 174 l 1389 174 l 1389 868 l 1563 868 l 1563 174 q 1389 0 1563 0 l 955 0 q 781 87 784 0 z "},"x":{"ha":1389,"x_min":0,"x_max":1215,"o":"m 477 434 l 0 868 l 260 868 l 608 552 l 955 868 l 1215 868 l 738 434 l 1215 0 l 955 0 l 608 316 l 260 0 l 0 0 l 477 434 z "},"y":{"ha":1389,"x_min":0,"x_max":1215,"o":"m 521 347 l 174 347 q 0 521 0 347 l 0 868 l 174 868 l 174 521 l 1042 521 l 1042 868 l 1215 868 l 1215 521 q 1042 347 1215 347 l 694 347 l 694 0 l 521 0 l 521 347 z "},"z":{"ha":1389,"x_min":0,"x_max":1215,"o":"m 1215 0 l 0 0 l 781 694 l 0 694 l 0 868 l 1215 868 l 434 174 l 1215 174 l 1215 0 z "},"{":{"ha":608,"x_min":0,"x_max":434,"o":"m 434 868 l 174 868 l 174 0 l 434 0 l 434 -174 l 174 -174 q 0 0 0 -174 l 0 868 q 174 1042 0 1042 l 434 1042 l 434 868 z "},"|":{"ha":347,"x_min":0,"x_max":174,"o":"m 0 -174 l 0 1042 l 174 1042 l 174 -174 l 0 -174 z "},"}":{"ha":608,"x_min":0,"x_max":434,"o":"m 0 1042 l 260 1042 q 434 868 434 1042 l 434 0 q 260 -174 434 -174 l 0 -174 l 0 0 l 260 0 l 260 868 l 0 868 l 0 1042 z "},"~":{"ha":694,"x_min":0,"x_max":521,"o":"m 0 480 q 195 575 119 575 q 260 553 233 575 q 326 532 290 532 q 521 621 404 532 l 521 412 q 326 317 401 317 q 260 339 288 317 q 193 361 231 361 q 0 274 117 361 l 0 480 z "},"‘":{"ha":347,"x_min":0,"x_max":174,"o":"m 0 521 l 0 868 l 174 868 l 174 521 l 0 521 z "},"’":{"ha":347,"x_min":0,"x_max":174,"o":"m 0 521 l 0 868 l 174 868 l 174 521 l 0 521 z "},"“":{"ha":694,"x_min":0,"x_max":521,"o":"m 0 521 l 0 868 l 174 868 l 174 521 l 0 521 m 347 521 l 347 868 l 521 868 l 521 521 l 347 521 z "},"”":{"ha":694,"x_min":0,"x_max":521,"o":"m 0 521 l 0 868 l 174 868 l 174 521 l 0 521 m 347 521 l 347 868 l 521 868 l 521 521 l 347 521 z "},"£":{"ha":1389,"x_min":0,"x_max":1215,"o":"m 87 521 l 87 694 q 260 868 87 868 l 1042 868 q 1215 694 1215 868 l 1215 608 l 1042 608 l 1042 694 l 260 694 l 260 521 l 868 521 l 868 347 l 260 347 l 260 174 l 1215 174 l 1215 0 l 87 0 l 87 347 l 0 347 l 0 521 l 87 521 z "},"¥":{"ha":1389,"x_min":0,"x_max":1215,"o":"m 521 347 l 521 434 l 174 434 q 0 608 0 434 l 0 868 l 174 868 l 174 608 l 1042 608 l 1042 868 l 1215 868 l 1215 608 q 1042 434 1215 434 l 694 434 l 694 347 l 1042 347 l 1042 260 l 694 260 l 694 174 l 1042 174 l 1042 87 l 694 87 l 694 0 l 521 0 l 521 87 l 174 87 l 174 174 l 521 174 l 521 260 l 174 260 l 174 347 l 521 347 z "},"€":{"ha":1476,"x_min":0,"x_max":1302,"o":"m 87 564 l 87 694 q 260 868 87 868 l 1302 868 l 1302 694 l 260 694 l 260 564 l 1128 564 l 1128 477 l 260 477 l 260 391 l 1128 391 l 1128 304 l 260 304 l 260 174 l 1302 174 l 1302 0 l 260 0 q 87 174 87 0 l 87 304 l 0 304 l 0 391 l 87 391 l 87 477 l 0 477 l 0 564 l 87 564 z "},"¢":{"ha":1389,"x_min":0,"x_max":1215,"o":"m 521 694 l 521 781 l 694 781 l 694 694 l 1215 694 l 1215 521 l 174 521 l 174 174 l 1215 174 l 1215 0 l 694 0 l 694 -87 l 521 -87 l 521 0 l 174 0 q 0 174 0 0 l 0 521 q 174 694 0 694 l 521 694 z "},"¡":{"ha":347,"x_min":0,"x_max":174,"o":"m 0 0 l 0 521 l 174 521 l 174 0 l 0 0 m 0 694 l 0 868 l 174 868 l 174 694 l 0 694 z "},"¿":{"ha":1389,"x_min":0,"x_max":1215,"o":"m 521 694 l 521 868 l 694 868 l 694 694 l 521 694 m 0 347 l 174 347 l 174 174 l 1042 174 l 1042 347 l 521 347 l 521 521 l 1042 521 q 1215 347 1215 521 l 1215 174 q 1042 0 1215 0 l 174 0 q 0 174 0 0 l 0 347 z "},"×":{"ha":1042,"x_min":0,"x_max":868,"o":"m 326 434 l 0 868 l 217 868 l 434 578 l 651 868 l 868 868 l 543 434 l 868 0 l 651 0 l 434 290 l 217 0 l 0 0 l 326 434 z "},"÷":{"ha":1042,"x_min":0,"x_max":868,"o":"m 0 347 l 0 521 l 868 521 l 868 347 l 0 347 m 521 868 l 521 694 l 347 694 l 347 868 l 521 868 m 521 174 l 521 0 l 347 0 l 347 174 l 521 174 z "},"©":{"ha":1389,"x_min":0,"x_max":1215,"o":"m 868 608 l 868 521 l 434 521 l 434 347 l 868 347 l 868 260 l 347 260 l 347 608 l 868 608 m 174 694 l 174 174 l 1042 174 l 1042 694 l 174 694 m 174 868 l 1042 868 q 1215 694 1215 868 l 1215 174 q 1042 0 1215 0 l 174 0 q 0 174 0 0 l 0 694 q 174 868 0 868 z "},"®":{"ha":1389,"x_min":0,"x_max":1215,"o":"m 174 694 l 174 174 l 1042 174 l 1042 694 l 174 694 m 174 868 l 1042 868 q 1215 694 1215 868 l 1215 174 q 1042 0 1215 0 l 174 0 q 0 174 0 0 l 0 694 q 174 868 0 868 m 434 260 l 347 260 l 347 608 l 868 608 l 868 347 l 781 347 l 868 260 l 738 260 l 651 347 l 521 347 l 521 434 l 781 434 l 781 521 l 434 521 l 434 260 z "},"™":{"ha":694,"x_min":0,"x_max":521,"o":"m 0 521 l 0 868 l 174 868 l 174 521 l 0 521 m 347 521 l 347 868 l 521 868 l 521 521 l 347 521 z "},"̀":{"ha":1389,"x_min":391,"x_max":694,"o":"m 391 1085 l 564 1085 l 694 955 l 521 955 l 391 1085 z "},"́":{"ha":1389,"x_min":521,"x_max":825,"o":"m 825 1085 l 694 955 l 521 955 l 651 1085 l 825 1085 z "},"̂":{"ha":1389,"x_min":347,"x_max":868,"o":"m 608 1015 l 521 955 l 347 955 l 608 1128 l 868 955 l 694 955 l 608 1015 z "},"̃":{"ha":1389,"x_min":271,"x_max":955,"o":"m 271 955 q 442 1126 357 1126 q 613 1083 528 1126 q 762 1040 699 1040 q 869 1126 827 1040 l 955 1126 q 784 955 869 955 q 613 998 699 955 q 464 1040 528 1040 q 357 955 400 1040 l 271 955 z "},"̈":{"ha":1389,"x_min":391,"x_max":781,"o":"m 521 955 l 391 955 l 391 1085 l 521 1085 l 521 955 m 781 955 l 651 955 l 651 1085 l 781 1085 l 781 955 z "},"̊":{"ha":1389,"x_min":434,"x_max":781,"o":"m 694 868 l 694 1042 l 521 1042 l 521 868 l 694 868 m 781 781 l 434 781 l 434 1128 l 781 1128 l 781 781 z "},"À":{"ha":1389,"x_min":0,"x_max":1215,"o":"m 174 0 l 0 0 l 0 694 q 174 868 0 868 l 1042 868 q 1215 694 1215 868 l 1215 0 l 1042 0 l 1042 347 l 347 347 l 347 521 l 1042 521 l 1042 694 l 174 694 l 174 0 m 406 1085 l 579 1085 l 709 955 l 536 955 l 406 1085 z "},"Á":{"ha":1389,"x_min":0,"x_max":1215,"o":"m 174 0 l 0 0 l 0 694 q 174 868 0 868 l 1042 868 q 1215 694 1215 868 l 1215 0 l 1042 0 l 1042 347 l 347 347 l 347 521 l 1042 521 l 1042 694 l 174 694 l 174 0 m 810 1085 l 680 955 l 506 955 l 636 1085 l 810 1085 z "},"Â":{"ha":1389,"x_min":0,"x_max":1215,"o":"m 174 0 l 0 0 l 0 694 q 174 868 0 868 l 1042 868 q 1215 694 1215 868 l 1215 0 l 1042 0 l 1042 347 l 347 347 l 347 521 l 1042 521 l 1042 694 l 174 694 l 174 0 m 608 1015 l 521 955 l 347 955 l 608 1128 l 868 955 l 694 955 l 608 1015 z "},"Ã":{"ha":1389,"x_min":0,"x_max":1215,"o":"m 174 0 l 0 0 l 0 694 q 174 868 0 868 l 1042 868 q 1215 694 1215 868 l 1215 0 l 1042 0 l 1042 347 l 347 347 l 347 521 l 1042 521 l 1042 694 l 174 694 l 174 0 m 266 955 q 437 1126 351 1126 q 608 1083 522 1126 q 757 1040 693 1040 q 864 1126 822 1040 l 949 1126 q 779 955 864 955 q 608 998 693 955 q 458 1040 522 1040 q 351 955 395 1040 l 266 955 z "},"Ä":{"ha":1389,"x_min":0,"x_max":1215,"o":"m 174 0 l 0 0 l 0 694 q 174 868 0 868 l 1042 868 q 1215 694 1215 868 l 1215 0 l 1042 0 l 1042 347 l 347 347 l 347 521 l 1042 521 l 1042 694 l 174 694 l 174 0 m 543 955 l 412 955 l 412 1085 l 543 1085 l 543 955 m 803 955 l 673 955 l 673 1085 l 803 1085 l 803 955 z "},"Å":{"ha":1389,"x_min":0,"x_max":1215,"o":"m 521 868 l 694 868 l 694 1042 l 521 1042 l 521 868 m 781 868 l 1042 868 q 1215 694 1215 868 l 1215 0 l 1042 0 l 1042 347 l 347 347 l 347 521 l 1042 521 l 1042 694 l 174 694 l 174 0 l 0 0 l 0 694 q 174 868 0 868 l 434 868 l 434 1128 l 781 1128 l 781 868 z "},"Æ":{"ha":2431,"x_min":0,"x_max":2257,"o":"m 1042 694 l 174 694 l 174 0 l 0 0 l 0 694 q 174 868 0 868 l 2257 868 l 2257 694 l 1215 694 l 1215 174 l 2257 174 l 2257 0 l 1042 0 l 1042 347 l 347 347 l 347 521 l 1042 521 l 1042 694 m 2257 347 l 1389 347 l 1389 521 l 2257 521 l 2257 347 z "},"Ç":{"ha":1389,"x_min":0,"x_max":1215,"o":"m 564 0 l 174 0 q 0 174 0 0 l 0 694 q 174 868 0 868 l 1042 868 l 1215 694 l 174 694 l 174 174 l 1042 174 l 1215 0 l 651 0 l 651 -43 l 738 -43 l 738 -174 l 434 -174 l 477 -130 l 694 -130 l 694 -87 l 564 -87 l 564 0 z "},"È":{"ha":1389,"x_min":0,"x_max":1215,"o":"m 1215 694 l 174 694 l 174 174 l 1215 174 l 1215 0 l 174 0 q 0 174 0 0 l 0 694 q 174 868 0 868 l 1215 868 l 1215 694 m 1215 347 l 347 347 l 347 521 l 1215 521 l 1215 347 m 406 1085 l 579 1085 l 709 955 l 536 955 l 406 1085 z "},"É":{"ha":1389,"x_min":0,"x_max":1215,"o":"m 1215 694 l 174 694 l 174 174 l 1215 174 l 1215 0 l 174 0 q 0 174 0 0 l 0 694 q 174 868 0 868 l 1215 868 l 1215 694 m 1215 347 l 347 347 l 347 521 l 1215 521 l 1215 347 m 810 1085 l 680 955 l 506 955 l 636 1085 l 810 1085 z "},"Ê":{"ha":1389,"x_min":0,"x_max":1215,"o":"m 1215 694 l 174 694 l 174 174 l 1215 174 l 1215 0 l 174 0 q 0 174 0 0 l 0 694 q 174 868 0 868 l 1215 868 l 1215 694 m 1215 347 l 347 347 l 347 521 l 1215 521 l 1215 347 m 608 1015 l 521 955 l 347 955 l 608 1128 l 868 955 l 694 955 l 608 1015 z "},"Ë":{"ha":1389,"x_min":0,"x_max":1215,"o":"m 1215 694 l 174 694 l 174 174 l 1215 174 l 1215 0 l 174 0 q 0 174 0 0 l 0 694 q 174 868 0 868 l 1215 868 l 1215 694 m 1215 347 l 347 347 l 347 521 l 1215 521 l 1215 347 m 543 955 l 412 955 l 412 1085 l 543 1085 l 543 955 m 803 955 l 673 955 l 673 1085 l 803 1085 l 803 955 z "},"Ì":{"ha":347,"x_min":-115,"x_max":189,"o":"m 174 868 l 174 0 l 0 0 l 0 868 l 174 868 m -115 1085 l 58 1085 l 189 955 l 15 955 l -115 1085 z "},"Í":{"ha":347,"x_min":-15,"x_max":289,"o":"m 174 868 l 174 0 l 0 0 l 0 868 l 174 868 m 289 1085 l 159 955 l -15 955 l 115 1085 l 289 1085 z "},"Î":{"ha":347,"x_min":-174,"x_max":347,"o":"m 174 868 l 174 0 l 0 0 l 0 868 l 174 868 m 87 1015 l 0 955 l -174 955 l 87 1128 l 347 955 l 174 955 l 87 1015 z "},"Ï":{"ha":347,"x_min":-109,"x_max":282,"o":"m 174 868 l 174 0 l 0 0 l 0 868 l 174 868 m 22 955 l -109 955 l -109 1085 l 22 1085 l 22 955 m 282 955 l 152 955 l 152 1085 l 282 1085 l 282 955 z "},"Ð":{"ha":1389,"x_min":-278,"x_max":1215,"o":"m 0 694 l 0 868 l 1042 868 q 1215 694 1215 868 l 1215 174 q 1042 0 1215 0 l 0 0 l 0 174 l 1042 174 l 1042 694 l 0 694 m -278 347 l -278 521 l 590 521 l 590 347 l -278 347 z "},"Ñ":{"ha":1389,"x_min":0,"x_max":1215,"o":"m 0 0 l 0 868 l 1042 302 l 1042 868 l 1215 868 l 1215 0 l 174 555 l 174 0 l 0 0 m 266 955 q 437 1126 351 1126 q 608 1083 522 1126 q 757 1040 693 1040 q 864 1126 822 1040 l 949 1126 q 779 955 864 955 q 608 998 693 955 q 458 1040 522 1040 q 351 955 395 1040 l 266 955 z "},"Ò":{"ha":1389,"x_min":0,"x_max":1215,"o":"m 174 694 l 174 174 l 1042 174 l 1042 694 l 174 694 m 174 868 l 1042 868 q 1215 694 1215 868 l 1215 174 q 1042 0 1215 0 l 174 0 q 0 174 0 0 l 0 694 q 174 868 0 868 m 406 1085 l 579 1085 l 709 955 l 536 955 l 406 1085 z "},"Ó":{"ha":1389,"x_min":0,"x_max":1215,"o":"m 174 694 l 174 174 l 1042 174 l 1042 694 l 174 694 m 174 868 l 1042 868 q 1215 694 1215 868 l 1215 174 q 1042 0 1215 0 l 174 0 q 0 174 0 0 l 0 694 q 174 868 0 868 m 810 1085 l 680 955 l 506 955 l 636 1085 l 810 1085 z "},"Ô":{"ha":1389,"x_min":0,"x_max":1215,"o":"m 174 694 l 174 174 l 1042 174 l 1042 694 l 174 694 m 174 868 l 1042 868 q 1215 694 1215 868 l 1215 174 q 1042 0 1215 0 l 174 0 q 0 174 0 0 l 0 694 q 174 868 0 868 m 608 1015 l 521 955 l 347 955 l 608 1128 l 868 955 l 694 955 l 608 1015 z "},"Õ":{"ha":1389,"x_min":0,"x_max":1215,"o":"m 174 694 l 174 174 l 1042 174 l 1042 694 l 174 694 m 174 868 l 1042 868 q 1215 694 1215 868 l 1215 174 q 1042 0 1215 0 l 174 0 q 0 174 0 0 l 0 694 q 174 868 0 868 m 266 955 q 437 1126 351 1126 q 608 1083 522 1126 q 757 1040 693 1040 q 864 1126 822 1040 l 949 1126 q 779 955 864 955 q 608 998 693 955 q 458 1040 522 1040 q 351 955 395 1040 l 266 955 z "},"Ö":{"ha":1389,"x_min":0,"x_max":1215,"o":"m 174 694 l 174 174 l 1042 174 l 1042 694 l 174 694 m 174 868 l 1042 868 q 1215 694 1215 868 l 1215 174 q 1042 0 1215 0 l 174 0 q 0 174 0 0 l 0 694 q 174 868 0 868 m 543 955 l 412 955 l 412 1085 l 543 1085 l 543 955 m 803 955 l 673 955 l 673 1085 l 803 1085 l 803 955 z "},"Ø":{"ha":1389,"x_min":0,"x_max":1215,"o":"m 293 174 l 713 694 l 174 694 l 174 174 l 293 174 m 153 0 q 0 174 0 11 l 0 694 q 174 868 0 868 l 1062 868 q 1215 694 1215 857 l 1215 174 q 1042 0 1215 0 l 153 0 m 924 694 l 506 174 l 1042 174 l 1042 694 l 924 694 z "},"Ù":{"ha":1389,"x_min":0,"x_max":1215,"o":"m 1042 0 l 174 0 q 0 174 0 0 l 0 868 l 174 868 l 174 174 l 1042 174 l 1042 868 l 1215 868 l 1215 174 q 1042 0 1215 0 m 406 1085 l 579 1085 l 709 955 l 536 955 l 406 1085 z "},"Ú":{"ha":1389,"x_min":0,"x_max":1215,"o":"m 1042 0 l 174 0 q 0 174 0 0 l 0 868 l 174 868 l 174 174 l 1042 174 l 1042 868 l 1215 868 l 1215 174 q 1042 0 1215 0 m 810 1085 l 680 955 l 506 955 l 636 1085 l 810 1085 z "},"Û":{"ha":1389,"x_min":0,"x_max":1215,"o":"m 1042 0 l 174 0 q 0 174 0 0 l 0 868 l 174 868 l 174 174 l 1042 174 l 1042 868 l 1215 868 l 1215 174 q 1042 0 1215 0 m 608 1015 l 521 955 l 347 955 l 608 1128 l 868 955 l 694 955 l 608 1015 z "},"Ü":{"ha":1389,"x_min":0,"x_max":1215,"o":"m 1042 0 l 174 0 q 0 174 0 0 l 0 868 l 174 868 l 174 174 l 1042 174 l 1042 868 l 1215 868 l 1215 174 q 1042 0 1215 0 m 543 955 l 412 955 l 412 1085 l 543 1085 l 543 955 m 803 955 l 673 955 l 673 1085 l 803 1085 l 803 955 z "},"Ý":{"ha":1389,"x_min":0,"x_max":1215,"o":"m 521 347 l 174 347 q 0 521 0 347 l 0 868 l 174 868 l 174 521 l 1042 521 l 1042 868 l 1215 868 l 1215 521 q 1042 347 1215 347 l 694 347 l 694 0 l 521 0 l 521 347 m 810 1085 l 680 955 l 506 955 l 636 1085 l 810 1085 z "},"Þ":{"ha":1389,"x_min":0,"x_max":1215,"o":"m 174 -174 l 0 -174 l 0 868 l 174 868 l 174 694 l 1042 694 q 1215 521 1215 694 l 1215 260 q 1042 87 1215 87 l 347 87 l 347 260 l 1042 260 l 1042 521 l 174 521 l 174 -174 z "},"ß":{"ha":1389,"x_min":0,"x_max":1215,"o":"m 174 0 l 0 0 l 0 868 l 1042 868 q 1215 694 1215 868 l 1215 608 q 1128 434 1215 449 q 1215 260 1215 419 l 1215 0 q 1042 -174 1215 -174 l 521 -174 l 521 0 l 1042 0 l 1042 347 l 347 347 l 347 521 l 1042 521 l 1042 694 l 174 694 l 174 0 z "},"à":{"ha":1389,"x_min":0,"x_max":1215,"o":"m 174 0 l 0 0 l 0 694 q 174 868 0 868 l 1042 868 q 1215 694 1215 868 l 1215 0 l 1042 0 l 1042 347 l 347 347 l 347 521 l 1042 521 l 1042 694 l 174 694 l 174 0 m 406 1085 l 579 1085 l 709 955 l 536 955 l 406 1085 z "},"á":{"ha":1389,"x_min":0,"x_max":1215,"o":"m 174 0 l 0 0 l 0 694 q 174 868 0 868 l 1042 868 q 1215 694 1215 868 l 1215 0 l 1042 0 l 1042 347 l 347 347 l 347 521 l 1042 521 l 1042 694 l 174 694 l 174 0 m 810 1085 l 680 955 l 506 955 l 636 1085 l 810 1085 z "},"â":{"ha":1389,"x_min":0,"x_max":1215,"o":"m 174 0 l 0 0 l 0 694 q 174 868 0 868 l 1042 868 q 1215 694 1215 868 l 1215 0 l 1042 0 l 1042 347 l 347 347 l 347 521 l 1042 521 l 1042 694 l 174 694 l 174 0 m 608 1015 l 521 955 l 347 955 l 608 1128 l 868 955 l 694 955 l 608 1015 z "},"ã":{"ha":1389,"x_min":0,"x_max":1215,"o":"m 174 0 l 0 0 l 0 694 q 174 868 0 868 l 1042 868 q 1215 694 1215 868 l 1215 0 l 1042 0 l 1042 347 l 347 347 l 347 521 l 1042 521 l 1042 694 l 174 694 l 174 0 m 266 955 q 437 1126 351 1126 q 608 1083 522 1126 q 757 1040 693 1040 q 864 1126 822 1040 l 949 1126 q 779 955 864 955 q 608 998 693 955 q 458 1040 522 1040 q 351 955 395 1040 l 266 955 z "},"ä":{"ha":1389,"x_min":0,"x_max":1215,"o":"m 174 0 l 0 0 l 0 694 q 174 868 0 868 l 1042 868 q 1215 694 1215 868 l 1215 0 l 1042 0 l 1042 347 l 347 347 l 347 521 l 1042 521 l 1042 694 l 174 694 l 174 0 m 543 955 l 412 955 l 412 1085 l 543 1085 l 543 955 m 803 955 l 673 955 l 673 1085 l 803 1085 l 803 955 z "},"å":{"ha":1389,"x_min":0,"x_max":1215,"o":"m 521 868 l 694 868 l 694 1042 l 521 1042 l 521 868 m 781 868 l 1042 868 q 1215 694 1215 868 l 1215 0 l 1042 0 l 1042 347 l 347 347 l 347 521 l 1042 521 l 1042 694 l 174 694 l 174 0 l 0 0 l 0 694 q 174 868 0 868 l 434 868 l 434 1128 l 781 1128 l 781 868 z "},"æ":{"ha":2431,"x_min":0,"x_max":2257,"o":"m 1042 694 l 174 694 l 174 0 l 0 0 l 0 694 q 174 868 0 868 l 2257 868 l 2257 694 l 1215 694 l 1215 174 l 2257 174 l 2257 0 l 1042 0 l 1042 347 l 347 347 l 347 521 l 1042 521 l 1042 694 m 2257 347 l 1389 347 l 1389 521 l 2257 521 l 2257 347 z "},"ç":{"ha":1389,"x_min":0,"x_max":1215,"o":"m 564 0 l 174 0 q 0 174 0 0 l 0 694 q 174 868 0 868 l 1042 868 l 1215 694 l 174 694 l 174 174 l 1042 174 l 1215 0 l 651 0 l 651 -43 l 738 -43 l 738 -174 l 434 -174 l 477 -130 l 694 -130 l 694 -87 l 564 -87 l 564 0 z "},"è":{"ha":1389,"x_min":0,"x_max":1215,"o":"m 1215 694 l 174 694 l 174 174 l 1215 174 l 1215 0 l 174 0 q 0 174 0 0 l 0 694 q 174 868 0 868 l 1215 868 l 1215 694 m 1215 347 l 347 347 l 347 521 l 1215 521 l 1215 347 m 454 1085 l 628 1085 l 758 955 l 585 955 l 454 1085 z "},"é":{"ha":1389,"x_min":0,"x_max":1215,"o":"m 1215 694 l 174 694 l 174 174 l 1215 174 l 1215 0 l 174 0 q 0 174 0 0 l 0 694 q 174 868 0 868 l 1215 868 l 1215 694 m 1215 347 l 347 347 l 347 521 l 1215 521 l 1215 347 m 859 1085 l 728 955 l 555 955 l 685 1085 l 859 1085 z "},"ê":{"ha":1389,"x_min":0,"x_max":1215,"o":"m 1215 694 l 174 694 l 174 174 l 1215 174 l 1215 0 l 174 0 q 0 174 0 0 l 0 694 q 174 868 0 868 l 1215 868 l 1215 694 m 1215 347 l 347 347 l 347 521 l 1215 521 l 1215 347 m 656 1015 l 570 955 l 396 955 l 656 1128 l 917 955 l 743 955 l 656 1015 z "},"ë":{"ha":1389,"x_min":0,"x_max":1215,"o":"m 1215 694 l 174 694 l 174 174 l 1215 174 l 1215 0 l 174 0 q 0 174 0 0 l 0 694 q 174 868 0 868 l 1215 868 l 1215 694 m 1215 347 l 347 347 l 347 521 l 1215 521 l 1215 347 m 591 955 l 461 955 l 461 1085 l 591 1085 l 591 955 m 852 955 l 722 955 l 722 1085 l 852 1085 l 852 955 z "},"ì":{"ha":477,"x_min":0,"x_max":304,"o":"m 289 868 l 289 0 l 115 0 l 115 868 l 289 868 m 0 1085 l 174 1085 l 304 955 l 130 955 l 0 1085 z "},"í":{"ha":477,"x_min":0,"x_max":304,"o":"m 189 868 l 189 0 l 15 0 l 15 868 l 189 868 m 304 1085 l 174 955 l 0 955 l 130 1085 l 304 1085 z "},"î":{"ha":694,"x_min":0,"x_max":521,"o":"m 347 868 l 347 0 l 174 0 l 174 868 l 347 868 m 260 1015 l 174 955 l 0 955 l 260 1128 l 521 955 l 347 955 l 260 1015 z "},"ï":{"ha":564,"x_min":0,"x_max":391,"o":"m 282 868 l 282 0 l 109 0 l 109 868 l 282 868 m 130 955 l 0 955 l 0 1085 l 130 1085 l 130 955 m 391 955 l 260 955 l 260 1085 l 391 1085 l 391 955 z "},"ð":{"ha":1389,"x_min":0,"x_max":1215,"o":"m 174 694 l 174 174 l 1042 174 l 1042 694 l 174 694 m 1128 955 l 1215 868 l 1215 174 q 1042 0 1215 0 l 174 0 q 0 174 0 0 l 0 694 q 174 868 0 868 l 1042 868 l 955 955 l 868 955 l 781 1042 l 868 1042 l 781 1128 l 955 1128 l 1042 1042 l 1128 1042 l 1215 955 l 1128 955 z "},"ñ":{"ha":1389,"x_min":0,"x_max":1215,"o":"m 0 0 l 0 868 l 1042 302 l 1042 868 l 1215 868 l 1215 0 l 174 555 l 174 0 l 0 0 m 266 955 q 437 1126 351 1126 q 608 1083 522 1126 q 757 1040 693 1040 q 864 1126 822 1040 l 949 1126 q 779 955 864 955 q 608 998 693 955 q 458 1040 522 1040 q 351 955 395 1040 l 266 955 z "},"ò":{"ha":1389,"x_min":0,"x_max":1215,"o":"m 174 694 l 174 174 l 1042 174 l 1042 694 l 174 694 m 174 868 l 1042 868 q 1215 694 1215 868 l 1215 174 q 1042 0 1215 0 l 174 0 q 0 174 0 0 l 0 694 q 174 868 0 868 m 406 1085 l 579 1085 l 709 955 l 536 955 l 406 1085 z "},"ó":{"ha":1389,"x_min":0,"x_max":1215,"o":"m 174 694 l 174 174 l 1042 174 l 1042 694 l 174 694 m 174 868 l 1042 868 q 1215 694 1215 868 l 1215 174 q 1042 0 1215 0 l 174 0 q 0 174 0 0 l 0 694 q 174 868 0 868 m 810 1085 l 680 955 l 506 955 l 636 1085 l 810 1085 z "},"ô":{"ha":1389,"x_min":0,"x_max":1215,"o":"m 174 694 l 174 174 l 1042 174 l 1042 694 l 174 694 m 174 868 l 1042 868 q 1215 694 1215 868 l 1215 174 q 1042 0 1215 0 l 174 0 q 0 174 0 0 l 0 694 q 174 868 0 868 m 608 1015 l 521 955 l 347 955 l 608 1128 l 868 955 l 694 955 l 608 1015 z "},"õ":{"ha":1389,"x_min":0,"x_max":1215,"o":"m 174 694 l 174 174 l 1042 174 l 1042 694 l 174 694 m 174 868 l 1042 868 q 1215 694 1215 868 l 1215 174 q 1042 0 1215 0 l 174 0 q 0 174 0 0 l 0 694 q 174 868 0 868 m 266 955 q 437 1126 351 1126 q 608 1083 522 1126 q 757 1040 693 1040 q 864 1126 822 1040 l 949 1126 q 779 955 864 955 q 608 998 693 955 q 458 1040 522 1040 q 351 955 395 1040 l 266 955 z "},"ö":{"ha":1389,"x_min":0,"x_max":1215,"o":"m 174 694 l 174 174 l 1042 174 l 1042 694 l 174 694 m 174 868 l 1042 868 q 1215 694 1215 868 l 1215 174 q 1042 0 1215 0 l 174 0 q 0 174 0 0 l 0 694 q 174 868 0 868 m 543 955 l 412 955 l 412 1085 l 543 1085 l 543 955 m 803 955 l 673 955 l 673 1085 l 803 1085 l 803 955 z "},"ø":{"ha":1389,"x_min":0,"x_max":1215,"o":"m 293 174 l 713 694 l 174 694 l 174 174 l 293 174 m 153 0 q 0 174 0 11 l 0 694 q 174 868 0 868 l 1062 868 q 1215 694 1215 857 l 1215 174 q 1042 0 1215 0 l 153 0 m 924 694 l 506 174 l 1042 174 l 1042 694 l 924 694 z "},"ù":{"ha":1389,"x_min":0,"x_max":1215,"o":"m 1042 0 l 174 0 q 0 174 0 0 l 0 868 l 174 868 l 174 174 l 1042 174 l 1042 868 l 1215 868 l 1215 174 q 1042 0 1215 0 m 406 1085 l 579 1085 l 709 955 l 536 955 l 406 1085 z "},"ú":{"ha":1389,"x_min":0,"x_max":1215,"o":"m 1042 0 l 174 0 q 0 174 0 0 l 0 868 l 174 868 l 174 174 l 1042 174 l 1042 868 l 1215 868 l 1215 174 q 1042 0 1215 0 m 810 1085 l 680 955 l 506 955 l 636 1085 l 810 1085 z "},"û":{"ha":1389,"x_min":0,"x_max":1215,"o":"m 1042 0 l 174 0 q 0 174 0 0 l 0 868 l 174 868 l 174 174 l 1042 174 l 1042 868 l 1215 868 l 1215 174 q 1042 0 1215 0 m 608 1015 l 521 955 l 347 955 l 608 1128 l 868 955 l 694 955 l 608 1015 z "},"ü":{"ha":1389,"x_min":0,"x_max":1215,"o":"m 1042 0 l 174 0 q 0 174 0 0 l 0 868 l 174 868 l 174 174 l 1042 174 l 1042 868 l 1215 868 l 1215 174 q 1042 0 1215 0 m 543 955 l 412 955 l 412 1085 l 543 1085 l 543 955 m 803 955 l 673 955 l 673 1085 l 803 1085 l 803 955 z "},"ý":{"ha":1389,"x_min":0,"x_max":1215,"o":"m 521 347 l 174 347 q 0 521 0 347 l 0 868 l 174 868 l 174 521 l 1042 521 l 1042 868 l 1215 868 l 1215 521 q 1042 347 1215 347 l 694 347 l 694 0 l 521 0 l 521 347 m 810 1085 l 680 955 l 506 955 l 636 1085 l 810 1085 z "},"þ":{"ha":1389,"x_min":0,"x_max":1215,"o":"m 174 -174 l 0 -174 l 0 868 l 174 868 l 174 694 l 1042 694 q 1215 521 1215 694 l 1215 260 q 1042 87 1215 87 l 347 87 l 347 260 l 1042 260 l 1042 521 l 174 521 l 174 -174 z "},"ÿ":{"ha":1389,"x_min":0,"x_max":1215,"o":"m 521 347 l 174 347 q 0 521 0 347 l 0 868 l 174 868 l 174 521 l 1042 521 l 1042 868 l 1215 868 l 1215 521 q 1042 347 1215 347 l 694 347 l 694 0 l 521 0 l 521 347 m 543 955 l 412 955 l 412 1085 l 543 1085 l 543 955 m 803 955 l 673 955 l 673 1085 l 803 1085 l 803 955 z "},"Œ":{"ha":2431,"x_min":0,"x_max":2257,"o":"m 174 0 q 0 174 0 0 l 0 694 q 174 868 0 868 l 2257 868 l 2257 694 l 1215 694 l 1215 174 l 2257 174 l 2257 0 l 174 0 m 2257 347 l 1389 347 l 1389 521 l 2257 521 l 2257 347 m 1042 694 l 174 694 l 174 174 l 1042 174 l 1042 694 z "},"œ":{"ha":2431,"x_min":0,"x_max":2257,"o":"m 174 0 q 0 174 0 0 l 0 694 q 174 868 0 868 l 2257 868 l 2257 694 l 1215 694 l 1215 174 l 2257 174 l 2257 0 l 174 0 m 2257 347 l 1389 347 l 1389 521 l 2257 521 l 2257 347 m 1042 694 l 174 694 l 174 174 l 1042 174 l 1042 694 z "}}}
